<svg id="Layer_1" data-name="Layer 1" xmlns="http://www.w3.org/2000/svg" viewBox="0 0 256 256">
  <defs>
    <style>
      .cls-1 {
        fill: #20232b;
      }

      .cls-2 {
        fill: #05c9cc;
      }
    </style>
  </defs>
  <g>
    <rect class="cls-1" x="4" y="4" width="248" height="248" rx="12"/>
    <path class="cls-2" d="M240,8a8,8,0,0,1,8,8V240a8,8,0,0,1-8,8H16a8,8,0,0,1-8-8V16a8,8,0,0,1,8-8H240m0-8H16A16,16,0,0,0,0,16V240a16,16,0,0,0,16,16H240a16,16,0,0,0,16-16V16A16,16,0,0,0,240,0Z"/>
  </g>
  <g>
    <path class="cls-2" d="M45.42,98.13v21.78H74.67v13.82H45.42v23h33v14.19H28v-87H78.41V98.13Z"/>
    <path class="cls-2" d="M132.3,170.94l-14.19-21.41-12.57,21.41H86.87l22.52-34.6L86.62,102h19.66l14.07,21.28L133,102h18.67l-22.65,34.35,22.9,34.6Z"/>
    <path class="cls-2" d="M174.11,167.64a31.76,31.76,0,0,1-12.51-12.51,37.44,37.44,0,0,1-4.54-18.67,36.73,36.73,0,0,1,4.67-18.67,32.39,32.39,0,0,1,12.75-12.5,39.07,39.07,0,0,1,36.1,0,32.39,32.39,0,0,1,12.75,12.5A36.63,36.63,0,0,1,228,136.46a36,36,0,0,1-4.79,18.67,33.16,33.16,0,0,1-12.94,12.51A37.63,37.63,0,0,1,192,172.06,36.26,36.26,0,0,1,174.11,167.64Zm26.82-13.07a16.71,16.71,0,0,0,6.66-6.91,23.23,23.23,0,0,0,2.49-11.2q0-9.83-5.17-15.12a17,17,0,0,0-12.63-5.29,16.6,16.6,0,0,0-12.51,5.29q-5,5.3-5,15.12t4.92,15.13A16.19,16.19,0,0,0,192,156.87,18.08,18.08,0,0,0,200.93,154.57Z"/>
  </g>
</svg>
